<?xml version="1.0" encoding="utf-8"?>
<!-- Generator: Adobe Illustrator 18.1.1, SVG Export Plug-In . SVG Version: 6.00 Build 0)  -->
<!DOCTYPE svg PUBLIC "-//W3C//DTD SVG 1.1//EN" "http://www.w3.org/Graphics/SVG/1.1/DTD/svg11.dtd">
<svg version="1.1" id="Layer_1" xmlns="http://www.w3.org/2000/svg" xmlns:xlink="http://www.w3.org/1999/xlink" x="0px" y="0px"
	 viewBox="0 0 40 40" enable-background="new 0 0 40 40" xml:space="preserve">
<g>
	<polygon fill="#8CC540" points="20,3.7 22.5,5.6 25.6,4.6 27.3,7.4 30.5,7.5 31.2,10.6 34.2,11.8 33.7,15 36.1,17.2 34.6,20 
		36.1,22.8 33.7,25 34.2,28.2 31.2,29.4 30.5,32.5 27.3,32.6 25.6,35.4 22.5,34.4 20,36.3 17.5,34.4 14.4,35.4 12.7,32.6 9.5,32.5 
		8.8,29.4 5.8,28.2 6.3,25 3.9,22.8 5.4,20 3.9,17.2 6.3,15 5.8,11.8 8.8,10.6 9.5,7.5 12.7,7.4 14.4,4.6 17.5,5.6 	"/>
	<path fill="none" stroke="#FAF8F9" stroke-miterlimit="10" d="M16.7,19.2h-0.5c-0.9,0-1.6-0.7-1.6-1.6v-0.5c0-0.9,0.7-1.6,1.6-1.6
		h0.5c0.9,0,1.6,0.7,1.6,1.6v0.5C18.3,18.5,17.6,19.2,16.7,19.2z"/>
	<path fill="none" stroke="#FAF8F9" stroke-miterlimit="10" d="M23.4,24.4h-0.5c-0.9,0-1.6-0.7-1.6-1.6v-0.5c0-0.9,0.7-1.6,1.6-1.6
		h0.5c0.9,0,1.6,0.7,1.6,1.6v0.5C25,23.7,24.3,24.4,23.4,24.4z"/>
	<line fill="none" stroke="#FAF8F9" stroke-miterlimit="10" x1="16.9" y1="25.2" x2="22.8" y2="14.9"/>
	<circle fill="none" stroke="#FAF8F9" stroke-miterlimit="10" cx="19.8" cy="20.1" r="10.4"/>
</g>
</svg>
