<?xml version="1.0" encoding="utf-8"?>
<!-- Generator: Adobe Illustrator 18.1.1, SVG Export Plug-In . SVG Version: 6.00 Build 0)  -->
<!DOCTYPE svg PUBLIC "-//W3C//DTD SVG 1.1//EN" "http://www.w3.org/Graphics/SVG/1.1/DTD/svg11.dtd">
<svg version="1.1" id="Layer_1" xmlns="http://www.w3.org/2000/svg" xmlns:xlink="http://www.w3.org/1999/xlink" x="0px" y="0px"
	 viewBox="0 0 40 40" enable-background="new 0 0 40 40" xml:space="preserve">
<g>
	<path id="XMLID_158_" fill="#00BFBF" d="M7.2,11l8.3-4.9h12.1V7c0,0.2,0.2,0.4,0.4,0.4c0.2,0,0.4-0.2,0.4-0.4V6.1h10v14.7h-6.5
		c1-3.5,2.4-8.4,2.5-8.5c0,0,0,0,0,0c0-0.1,0.4-2.1-0.7-4.2c-0.1-0.1-0.2-0.2-0.4-0.2c-0.2,0-0.3,0.1-0.4,0.3l-5.1,12.7h-3.2h0h-3
		h-6.1l-8.3-4.2V11z"/>
	<path id="XMLID_157_" fill="none" d="M33.1,31.3c-0.2,0.3-0.3,0.5-0.3,0.9c0,0.9,0.7,1.5,1.5,1.5c0.9,0,1.5-0.7,1.5-1.5
		c0-0.9-0.7-1.5-1.5-1.5c0,0-0.1,0-0.1,0C33.8,30.7,33.3,30.9,33.1,31.3z"/>
	<path id="XMLID_156_" fill="none" d="M21.8,30.6C21.8,30.6,21.7,30.6,21.8,30.6c-0.1,0-0.1,0-0.1,0c-0.8,0-1.5,0.7-1.5,1.5
		c0,0.8,0.7,1.5,1.5,1.5c0,0,0,0,0,0c0.9,0,1.5-0.7,1.5-1.5c0-0.3-0.1-0.6-0.3-0.9C22.7,30.9,22.3,30.7,21.8,30.6z"/>
	<path id="XMLID_146_" fill="none" d="M21.7,20.7h3h0h3.2L32.9,8c0.1-0.2,0.2-0.3,0.4-0.3c0.2,0,0.3,0.1,0.4,0.2
		c1.1,2.1,0.7,4.1,0.7,4.2c0,0,0,0,0,0c0,0.1-1.4,5-2.5,8.5h6.5V6.1h-10V7c0,0.2-0.2,0.4-0.4,0.4c-0.2,0-0.4-0.2-0.4-0.4V6.1H15.5
		L7.2,11v5.5l8.3,4.2H21.7z M27.6,8.6c0-0.2,0.2-0.4,0.4-0.4c0.2,0,0.4,0.2,0.4,0.4v1.3c0,0.2-0.2,0.4-0.4,0.4
		c-0.2,0-0.4-0.2-0.4-0.4V8.6z M27.6,11.5c0-0.2,0.2-0.4,0.4-0.4c0.2,0,0.4,0.2,0.4,0.4v1.3c0,0.2-0.2,0.4-0.4,0.4
		c-0.2,0-0.4-0.2-0.4-0.4V11.5z M27.6,14.4c0-0.2,0.2-0.4,0.4-0.4c0.2,0,0.4,0.2,0.4,0.4v1.3c0,0.2-0.2,0.4-0.4,0.4
		c-0.2,0-0.4-0.2-0.4-0.4V14.4z M27.6,17.3c0-0.2,0.2-0.4,0.4-0.4c0.2,0,0.4,0.2,0.4,0.4v1.3c0,0.2-0.2,0.4-0.4,0.4
		c-0.2,0-0.4-0.2-0.4-0.4V17.3z M10,15.3c-0.9,0-1.7-0.7-1.7-1.7c0-0.9,0.7-1.7,1.7-1.7c0.9,0,1.7,0.7,1.7,1.7
		C11.7,14.6,10.9,15.3,10,15.3z M21.7,17.3c-1,0-1.9-0.8-1.9-1.9c0-1,0.8-1.9,1.9-1.9c1,0,1.9,0.8,1.9,1.9
		C23.6,16.5,22.7,17.3,21.7,17.3z M23.1,9.9c0.2,0.2,0.2,0.4,0,0.6l-6.3,6.3c-0.1,0.1-0.2,0.1-0.3,0.1c-0.1,0-0.2,0-0.3-0.1
		c-0.2-0.2-0.2-0.4,0-0.6l6.3-6.3C22.7,9.7,23,9.7,23.1,9.9z M17.4,9.5c1,0,1.9,0.8,1.9,1.9c0,1-0.8,1.9-1.9,1.9
		c-1,0-1.9-0.8-1.9-1.9C15.5,10.3,16.4,9.5,17.4,9.5z"/>
	<circle id="XMLID_145_" fill="none" cx="10" cy="13.7" r="0.8"/>
	<circle id="XMLID_144_" fill="#FFFFFF" cx="28.2" cy="25" r="0.1"/>
	<path id="XMLID_138_" fill="#1A4F69" d="M3.8,20.6h5.4c0.9,0,1.6,0.7,1.6,1.6c0,0.4-0.2,0.8-0.5,1.1c-0.3,0.3-0.7,0.5-1.1,0.5h-2
		c-1.4,0-2.5,1.1-2.5,2.5v1c0,0.2,0.2,0.4,0.4,0.4c0.2,0,0.4-0.2,0.4-0.4v-1c0-0.9,0.7-1.6,1.6-1.6h2c0.7,0,1.3-0.3,1.7-0.7
		c0.5-0.5,0.7-1.1,0.7-1.7c0-1.4-1.1-2.5-2.5-2.5H3.8c-0.6,0-1.1-0.2-1.6-0.6c-0.4-0.4-0.6-1-0.6-1.6c0-1.2,1-2.2,2.2-2.2h2.6v1.4
		c0,0.2,0.1,0.3,0.2,0.4l8.7,4.4c0.1,0,0.1,0,0.2,0h6.2h2.7c0.4,1.3,0.6,2.1,0.7,2.5c0.2,0.8,0.4,1.3,0.8,1.8L25.8,26c0,0,0,0,0,0
		c0,0-0.4,1.4-2,2.4c-0.6-0.3-1.3-0.5-2.1-0.5c0,0,0,0,0,0c-2.4,0-4.3,1.9-4.3,4.3c0,2.4,1.9,4.3,4.3,4.3c0,0,0,0,0,0
		c2.4,0,4.3-1.9,4.3-4.3c0-0.2,0-0.3,0-0.5c0-0.1,0-0.6,0.2-1.4c0.3-1,0.9-1.9,1.8-2.6c0.9,0.7,1.5,1.5,1.8,2.6
		c0.2,0.7,0.2,1.3,0.2,1.4c0,0.2,0,0.3,0,0.5c0,2.4,1.9,4.3,4.3,4.3c2.4,0,4.3-1.9,4.3-4.3c0-2.4-1.9-4.3-4.3-4.3
		c-0.7,0-1.4,0.2-2.1,0.5c-0.8-0.5-1.3-1.1-1.5-1.5c-0.3-0.5-0.4-0.9-0.4-0.9c0,0,0,0,0,0l-0.1-0.2c0.4-0.5,0.5-1,0.8-1.8
		c0.1-0.4,0.4-1.3,0.7-2.5h7.2c0.2,0,0.4-0.2,0.4-0.4v-0.4V5.6c0-0.2-0.2-0.4-0.4-0.4H15.4c-0.1,0-0.2,0-0.2,0.1l-8.6,5.1
		c-0.1,0.1-0.2,0.2-0.2,0.4V12H5.3c-0.8,0-1.5-0.7-1.5-1.5v-0.1C3.8,9.7,4.5,9,5.2,9c0.5,0,1-0.3,1.4-0.6C7,8,7.2,7.4,7.2,6.9V3.9
		c0-0.2-0.2-0.4-0.4-0.4c-0.2,0-0.4,0.2-0.4,0.4v2.9c0,0.3-0.1,0.7-0.4,0.9C5.8,8,5.5,8.1,5.2,8.1C4,8.2,3,9.2,3,10.4v0.1
		c0,1.3,1,2.3,2.3,2.3h1.1v1.6H3.8c-1.7,0-3,1.4-3,3c0,0.8,0.3,1.6,0.9,2.2C2.2,20.3,3,20.6,3.8,20.6z M25.2,21.5H27h0.6l-1.3,3.3
		c-0.1-0.2-0.2-0.5-0.3-0.8c0-0.1,0-0.2-0.1-0.3C25.8,23.4,25.5,22.4,25.2,21.5z M32,29.2C32,29.2,32,29.2,32,29.2
		c0.2,0.1,0.4,0.1,0.5,0c0.5-0.3,1-0.5,1.6-0.5c0.1,0,0.2,0,0.3,0c1.9,0,3.5,1.6,3.5,3.5c0,1.9-1.6,3.5-3.5,3.5c-0.1,0-0.2,0-0.3,0
		c-1.8-0.1-3.2-1.6-3.2-3.5c0-0.1,0-0.3,0-0.4c0,0,0,0,0,0c0-0.2,0.1-2.7-2.2-4.5c0.2-0.1,0.3-0.3,0.5-0.4c0.1-0.1,0.3-0.2,0.4-0.4
		C29.8,27,30.4,28.3,32,29.2z M31.1,20.7c-0.4,1.5-0.8,2.7-0.9,3.1c-0.2,0.7-0.3,1.1-0.6,1.5c-0.3,0.4-0.9,0.9-2,1.8
		c-2.4,1.8-2.4,4.4-2.4,4.6c0,0,0,0,0,0c0,0.1,0,0.3,0,0.4c0,1.9-1.6,3.5-3.5,3.5c0,0,0,0,0,0c-0.1,0-0.2,0-0.3,0
		c-1.8-0.1-3.2-1.6-3.2-3.5c0-1.8,1.4-3.3,3.2-3.5c0.1,0,0.2,0,0.3,0c0,0,0,0,0,0c0.6,0,1.2,0.2,1.8,0.5c0,0,0,0,0.1,0
		c0.1,0.1,0.3,0.1,0.4,0c1.9-1.1,2.5-2.7,2.6-2.9l0.4-1.1l0.3-0.8l1.5-3.7L33,10.1l0.4-0.9c0.5,1.4,0.3,2.6,0.3,2.7
		C33.5,12.3,32.1,17.3,31.1,20.7z M7.2,11l8.3-4.9h12.1V7c0,0.2,0.2,0.4,0.4,0.4c0.2,0,0.4-0.2,0.4-0.4V6.1h10v14.7h-6.5
		c1-3.5,2.4-8.4,2.5-8.5c0,0,0,0,0,0c0-0.1,0.4-2.1-0.7-4.2c-0.1-0.1-0.2-0.2-0.4-0.2c-0.2,0-0.3,0.1-0.4,0.3l-5.1,12.7h-3.2h0h-3
		h-6.1l-8.3-4.2V11z"/>
	<path id="XMLID_137_" fill="#1A4F69" d="M28,10.3c0.2,0,0.4-0.2,0.4-0.4V8.6c0-0.2-0.2-0.4-0.4-0.4c-0.2,0-0.4,0.2-0.4,0.4v1.3
		C27.6,10.1,27.8,10.3,28,10.3z"/>
	<path id="XMLID_136_" fill="#1A4F69" d="M28,13.3c0.2,0,0.4-0.2,0.4-0.4v-1.3c0-0.2-0.2-0.4-0.4-0.4c-0.2,0-0.4,0.2-0.4,0.4v1.3
		C27.6,13.1,27.8,13.3,28,13.3z"/>
	<path id="XMLID_135_" fill="#1A4F69" d="M28,16.2c0.2,0,0.4-0.2,0.4-0.4v-1.3c0-0.2-0.2-0.4-0.4-0.4c-0.2,0-0.4,0.2-0.4,0.4v1.3
		C27.6,16,27.8,16.2,28,16.2z"/>
	<path id="XMLID_134_" fill="#1A4F69" d="M28,19.1c0.2,0,0.4-0.2,0.4-0.4v-1.3c0-0.2-0.2-0.4-0.4-0.4c-0.2,0-0.4,0.2-0.4,0.4v1.3
		C27.6,18.9,27.8,19.1,28,19.1z"/>
	<path id="XMLID_131_" fill="#1A4F69" d="M10,12c-0.9,0-1.7,0.7-1.7,1.7c0,0.9,0.7,1.7,1.7,1.7c0.9,0,1.7-0.7,1.7-1.7
		C11.7,12.8,10.9,12,10,12z M10,14.5c-0.4,0-0.8-0.4-0.8-0.8c0-0.4,0.4-0.8,0.8-0.8c0.4,0,0.8,0.4,0.8,0.8
		C10.8,14.1,10.5,14.5,10,14.5z"/>
	<path id="XMLID_130_" fill="#FFFFFF" d="M16.3,16.7c0.1,0.1,0.2,0.1,0.3,0.1c0.1,0,0.2,0,0.3-0.1l6.3-6.3c0.2-0.2,0.2-0.4,0-0.6
		c-0.2-0.2-0.4-0.2-0.6,0l-6.3,6.3C16.1,16.3,16.1,16.6,16.3,16.7z"/>
	<path id="XMLID_127_" fill="#FFFFFF" d="M17.4,13.3c1,0,1.9-0.8,1.9-1.9c0-1-0.8-1.9-1.9-1.9c-1,0-1.9,0.8-1.9,1.9
		C15.5,12.4,16.4,13.3,17.4,13.3z M17.1,10.4c0.1,0,0.2,0,0.3,0c0.6,0,1,0.5,1,1c0,0.6-0.5,1-1,1c-0.1,0-0.2,0-0.3,0
		c-0.4-0.1-0.8-0.5-0.8-1C16.4,10.9,16.7,10.5,17.1,10.4z"/>
	<path id="XMLID_124_" fill="#FFFFFF" d="M21.7,13.6c-1,0-1.9,0.8-1.9,1.9c0,1,0.8,1.9,1.9,1.9c1,0,1.9-0.8,1.9-1.9
		C23.6,14.4,22.7,13.6,21.7,13.6z M21.7,16.5c-0.1,0-0.2,0-0.3,0c-0.4-0.1-0.8-0.5-0.8-1c0-0.5,0.3-0.9,0.8-1c0.1,0,0.2,0,0.3,0
		c0.6,0,1,0.5,1,1C22.7,16,22.3,16.5,21.7,16.5z"/>
</g>
</svg>
