<?xml version="1.0" encoding="utf-8"?>
<!-- Generator: Adobe Illustrator 18.1.1, SVG Export Plug-In . SVG Version: 6.00 Build 0)  -->
<!DOCTYPE svg PUBLIC "-//W3C//DTD SVG 1.1//EN" "http://www.w3.org/Graphics/SVG/1.1/DTD/svg11.dtd">
<svg version="1.1" id="Layer_1" xmlns="http://www.w3.org/2000/svg" xmlns:xlink="http://www.w3.org/1999/xlink" x="0px" y="0px"
	 viewBox="0 0 40 40" enable-background="new 0 0 40 40" xml:space="preserve">
<g>
	<line fill="none" stroke="#BDBEBF" stroke-width="0.936" stroke-miterlimit="10" x1="1.2" y1="16.4" x2="6.6" y2="16.4"/>
	<path fill="#FE7475" d="M16.4,36.2c0.9,0.9,2.4,0.9,3.4,0l14.2-13.8c0.5-0.4,0.6-1,0.6-1.6v-9.2l-4.5-4.4h-9.5
		c-0.6,0-1.2,0.2-1.7,0.7L4.8,21.6c-0.9,0.9-0.9,2.4,0,3.3L16.4,36.2z"/>
	<path fill="none" stroke="#1A4F69" stroke-width="0.936" stroke-miterlimit="10" d="M14.5,34.3l1.9,1.8c0.9,0.9,2.4,0.9,3.4,0
		l14.2-13.8c0.5-0.4,0.6-1,0.6-1.6v-9.2l-1.1-1"/>
	<path fill="none" stroke="#1A4F69" stroke-width="0.936" stroke-miterlimit="10" d="M14.3,12.4l-9.5,9.2c-0.9,0.9-0.9,2.4,0,3.3
		l7.9,7.7"/>
	<path fill="none" stroke="#1A4F69" stroke-width="0.936" stroke-miterlimit="10" d="M31,8.1l-0.9-0.9h-9.5c-0.6,0-1.2,0.2-1.7,0.7
		l-2.9,2.8"/>
	<path fill="#FAF8F9" stroke="#1A4F69" stroke-width="0.936" stroke-miterlimit="10" d="M28.7,15.1l-2.3-2.2c-0.5-0.5-0.5-1.2,0-1.7
		l0.6-0.6c0.5-0.5,1.3-0.5,1.7,0l2.3,2.2c0.5,0.5,0.5,1.2,0,1.7l-0.6,0.6C30,15.5,29.2,15.5,28.7,15.1z"/>
	<line fill="none" stroke="#1A4F69" stroke-width="0.936" stroke-miterlimit="10" x1="6" y1="32.6" x2="16.7" y2="32.6"/>
	<line fill="none" stroke="#BDBEBF" stroke-width="0.936" stroke-miterlimit="10" x1="26.8" y1="3.2" x2="13.2" y2="3.2"/>
	<line fill="none" stroke="#1A4F69" stroke-width="0.936" stroke-miterlimit="10" x1="20.9" y1="10.7" x2="11.4" y2="10.7"/>
	<line fill="none" stroke="#1A4F69" stroke-width="0.936" stroke-miterlimit="10" x1="10.2" y1="10.7" x2="9" y2="10.7"/>
	<line fill="none" stroke="#1A4F69" stroke-width="0.936" stroke-miterlimit="10" x1="7.8" y1="10.7" x2="6.6" y2="10.7"/>
	<line fill="none" stroke="#BDBEBF" stroke-width="0.936" stroke-miterlimit="10" x1="12" y1="3.2" x2="10.8" y2="3.2"/>
	<path fill="none" stroke="#1A4F69" stroke-width="0.936" stroke-miterlimit="10" d="M29.8,11.8c0.7-1.7,2.3-2.9,4.3-2.9
		c2.6,0,4.6,2,4.6,4.5c0,1.7-1,3.2-2.5,4c-0.6,0.3-1.4,0.5-2.1,0.5"/>
	<line fill="none" stroke="#1A4F69" stroke-width="0.936" stroke-miterlimit="10" x1="4.8" y1="32.6" x2="3.6" y2="32.6"/>
	<line fill="none" stroke="#1A4F69" stroke-width="0.936" stroke-miterlimit="10" x1="2.4" y1="32.6" x2="1.2" y2="32.6"/>
</g>
</svg>
